<?xml version="1.0" encoding="UTF-8"?><svg id="Layer_2" xmlns="http://www.w3.org/2000/svg" viewBox="0 0 60.2 20.76"><g id="Layer_1-2"><path d="M1.06,5.05c-.09,0-.16-.07-.16-.19,0-.07.02-.16.09-.28C2.19,2.89,5.67,0,9.29,0c1.72,0,2.75.7,3.27,1.65,1.27-.45,2.61-.7,4.02-.7,2.19,0,3.88.33,5.12.89,1.25-.8,2.56-1.43,4.07-1.74.12,0,.19.07.19.14s-.05.14-.16.16c-1.36.28-2.59.85-3.71,1.6,1.76.92,2.54,2.35,2.54,3.97,0,4.79-6.7,11.28-14.15,11.28-1.27,0-2.7-.31-4.07-.66-1.2.4-2.49.63-3.9.63-.94,0-2.51-.12-2.51-1.13,0-.73,1.15-.87,2.42-.87,1.34,0,2.82.42,4.35.87,5.64-2.55,9.05-10.1,14.43-13.93-1.18-.56-2.77-.89-4.89-.89-1.27,0-2.47.26-3.62.68.19.42.28.92.28,1.39,0,.14,0,.28-.02.42.19-.02.4-.05.61-.05.94,0,1.34.45,1.34,1.13,0,2.23-4.35,6.98-8.18,6.98-1.55,0-2.26-.78-2.26-1.88,0-2.35,3.13-6.35,7.59-8.11-.49-.89-1.46-1.57-3.01-1.57C5.77.26,2.15,3.24,1.38,4.77c-.11.21-.23.28-.32.28ZM5.83,16.43c-1.55-.45-3.01-.85-3.95-.85-.4,0-1.15,0-1.15.45.02.8,1.25.94,1.95.94,1.13,0,2.16-.19,3.15-.54ZM12.2,2.14c-4.02,1.69-6.96,5.45-6.96,7.61,0,.96.56,1.6,1.88,1.6,3.48,0,7.03-4.42,7.03-6.39,0-.56-.28-.92-.96-.92-.09,0-.19,0-.28.02-.24,1.41-1.22,2.66-2.54,2.66-.45,0-.63-.19-.63-.45,0-.68,1.22-1.95,2.73-2.4.02-.09.02-.21.02-.33-.01-.46-.1-.96-.29-1.4ZM21.58,2.37c-4.94,3.69-8.23,11.16-14.31,13.87,1.2.33,2.42.61,3.55.61,6.82,0,13-6.18,13-10.76,0-1.51-.69-2.85-2.24-3.72ZM12.43,4.16c-1.27.35-2.04,1.48-2.04,1.95,0,.12.07.21.19.21.98,0,1.67-.99,1.85-2.16ZM21.69,16.17c.12.33.45.54,1.03.54.8,0,1.76-.31,2.73-1.18.05-.07.09-.09.14-.09s.09.05.09.12c0,.33-1.5,1.55-3.15,1.55-1.15,0-1.6-.52-1.6-1.18,0-1.22,1.5-2.94,3.08-2.94.47,0,.82.21.82.73.01,1.2-1.84,2.02-3.14,2.45ZM21.62,15.93c1.29-.49,2.63-1.2,2.63-2.02,0-.35-.24-.52-.54-.52-1.03,0-2.09,1.39-2.09,2.37v.17ZM26.91,14.48c.4,0,.73.19.73.59,0,.31-.24.78-.59.78-.09,0-.16-.07-.16-.16,0-.14.12-.26.16-.31.09-.07.14-.16.14-.26,0-.26-.19-.4-.4-.4-.42,0-1.03.45-1.03,1.2,0,.47.28,1.01.89,1.01,2.16,0,1.13-4.25,3.78-4.25.4,0,.96.21.96.63,0,.33-.31.8-.8.8-.09,0-.16-.02-.19-.12,0-.16.16-.28.26-.33.07-.02.14-.19.14-.33,0-.19-.14-.38-.42-.38-1.83,0-.87,4.25-3.83,4.25-1.39,0-1.39-1.13-1.39-1.13.01-1.01,1.02-1.59,1.75-1.59ZM31.26,14.48c.4,0,.73.19.73.59,0,.31-.23.78-.59.78-.09,0-.16-.07-.16-.16,0-.14.12-.26.16-.31.09-.07.14-.16.14-.26,0-.26-.19-.4-.4-.4-.42,0-1.03.45-1.03,1.2,0,.47.28,1.01.89,1.01,2.16,0,1.13-4.25,3.78-4.25.4,0,.96.21.96.63,0,.33-.31.8-.8.8-.09,0-.16-.02-.19-.12,0-.16.16-.28.26-.33.07-.02.14-.19.14-.33,0-.19-.14-.38-.42-.38-1.83,0-.87,4.25-3.83,4.25-1.39,0-1.39-1.13-1.39-1.13,0-1.01,1.02-1.59,1.75-1.59ZM36.05,16.17c.12.33.45.54,1.03.54.8,0,1.76-.31,2.73-1.18.05-.07.09-.09.14-.09s.09.05.09.12c0,.33-1.5,1.55-3.15,1.55-1.15,0-1.6-.52-1.6-1.18,0-1.22,1.5-2.94,3.08-2.94.47,0,.82.21.82.73,0,1.2-1.84,2.02-3.14,2.45ZM35.98,15.93c1.29-.49,2.63-1.2,2.63-2.02,0-.35-.24-.52-.54-.52-1.03,0-2.09,1.39-2.09,2.37v.17ZM43.31,13.18c.05-.02.12-.02.17-.02.07,0,.12.02.12.07,0,.02,0,.05-.02.09-.21.31-.68.78-.68,1.1,0,.28.24.47.54.47.26,0,.54-.19.54-.19.07,0,.12.05.12.12,0,.02,0,.05-.02.07-.12.09-.73.31-1.08.31-.33,0-.78-.14-.78-.49,0-.33.21-.49.21-.7,0-.02,0-.05-.05-.05-.07.02-1.01.61-1.48.96l-1.6,2.04c-.12.14-.21.19-.31.19-.12,0-.19-.09-.19-.21,0-.09.02-.19.12-.28.09-.12.68-.92,1.27-1.67.71-.87,1.36-1.81,1.43-1.9.09-.12.21-.19.35-.19s.21.09.21.24c0,.12-.47.8-.56.89.12-.02.26-.07,1.69-.85ZM44.21,16.68c0,2.56,2.4,3.67,5.29,3.67,4.49,0,10.2-2.66,10.2-6.65,0-1.2-.87-2.09-2.96-2.09-.24,0-.47.02-.68.07.28.54.45,1.15.45,1.72,0,1.32-.78,2.51-2.37,2.51-.8,0-1.5-.49-1.5-1.32,0-1.08,1.1-2.59,2.84-3.13-.49-.71-1.29-1.25-2.42-1.25-.85,0-1.67.28-2.42.82-.09.07-.19.09-.28.09-.12,0-.21-.05-.21-.12s.07-.14.21-.26c.82-.61,1.81-.87,2.7-.87,1.29,0,2.26.63,2.82,1.48.28-.07.56-.09.87-.09,2.42,0,3.45,1.1,3.45,2.54,0,4.18-6.02,6.96-10.76,6.96-3.13,0-5.71-1.2-5.71-3.97,0-.61.21-1.29.68-2.04.52-.8,1.27-1.76,2-2.66-.54,0-1.01,0-1.34-.02-.26,0-.4-.07-.4-.14,0-.09.21-.14.4-.16h1.62c1.03-1.27,1.97-2.33,2.19-2.61.09-.09.23-.16.38-.16.31,0,.28.21.28.21,0,.09-.05.16-.12.21-.4.38-1.25,1.32-2.14,2.37h1.95c.19,0,.28.07.28.14,0,.09-.16.19-.56.19h-1.95c-.8.96-1.6,1.97-2.12,2.75-.46.66-.67,1.27-.67,1.81ZM55.63,11.77c-1.62.45-2.68,1.83-2.68,2.82,0,.63.56.99,1.18.99,1.27,0,1.9-1.08,1.9-2.26,0-.51-.14-1.05-.4-1.55Z"/></g></svg>