<?xml version="1.0" encoding="UTF-8"?><svg id="Layer_2" xmlns="http://www.w3.org/2000/svg" viewBox="0 0 54.7 17.24"><g id="Layer_1-2"><path d="M1.06,5.05c-.09,0-.16-.07-.16-.19,0-.07.02-.16.09-.28C2.19,2.89,5.67,0,9.29,0c1.72,0,2.75.71,3.27,1.65,1.27-.45,2.61-.71,4.02-.71,2.19,0,3.88.33,5.12.89,1.25-.8,2.56-1.43,4.07-1.74.12,0,.19.07.19.14s-.05.14-.16.16c-1.36.28-2.59.85-3.71,1.6,1.76.92,2.54,2.35,2.54,3.97,0,4.79-6.7,11.28-14.15,11.28-1.27,0-2.7-.31-4.07-.66-1.2.4-2.49.63-3.9.63-.94,0-2.51-.12-2.51-1.13,0-.73,1.15-.87,2.42-.87,1.34,0,2.82.42,4.35.87,5.66-2.56,9.07-10.11,14.45-13.94-1.18-.56-2.77-.89-4.89-.89-1.27,0-2.47.26-3.62.68.19.42.28.92.28,1.39,0,.14,0,.28-.02.42.19-.02.4-.05.61-.05.94,0,1.34.45,1.34,1.13,0,2.23-4.35,6.98-8.18,6.98-1.55,0-2.26-.78-2.26-1.88,0-2.35,3.13-6.35,7.59-8.11-.49-.89-1.46-1.57-3.01-1.57C5.79.24,2.17,3.22,1.4,4.75c-.13.23-.25.3-.34.3ZM5.83,16.43c-1.55-.45-3.01-.85-3.95-.85-.4,0-1.15,0-1.15.45.02.8,1.25.94,1.95.94,1.13,0,2.16-.19,3.15-.54ZM12.2,2.14c-4.02,1.69-6.96,5.45-6.96,7.61,0,.96.56,1.6,1.88,1.6,3.48,0,7.03-4.42,7.03-6.39,0-.56-.28-.92-.96-.92-.09,0-.19,0-.28.02-.24,1.41-1.22,2.66-2.54,2.66-.45,0-.63-.19-.63-.45,0-.68,1.22-1.95,2.73-2.4.02-.09.02-.21.02-.33-.01-.46-.1-.95-.29-1.4ZM21.58,2.37c-4.94,3.69-8.23,11.16-14.31,13.87,1.2.33,2.42.61,3.55.61,6.82,0,13-6.18,13-10.76,0-1.51-.69-2.85-2.24-3.72ZM12.43,4.16c-1.27.35-2.04,1.48-2.04,1.95,0,.12.07.21.19.21.98,0,1.67-.99,1.85-2.16ZM24.47,13.18c.05-.02.12-.02.16-.02.07,0,.12.02.12.07,0,.02,0,.05-.02.09-.21.31-.68.78-.68,1.1,0,.28.24.47.54.47.26,0,.54-.19.54-.19.07,0,.12.05.12.12,0,.02,0,.05-.02.07-.12.09-.73.31-1.08.31-.33,0-.78-.14-.78-.49,0-.33.21-.49.21-.71,0-.02,0-.05-.05-.05-.07.02-1.01.61-1.48.96l-1.6,2.04c-.12.14-.21.19-.31.19-.12,0-.19-.09-.19-.21,0-.09.02-.19.12-.28.09-.12.68-.92,1.27-1.67.71-.87,1.36-1.81,1.43-1.9.09-.12.21-.19.35-.19s.21.09.21.24c0,.12-.47.8-.56.89.12-.01.26-.06,1.7-.84ZM25.01,16.66c.35,0,.96-.26,1.93-1.13.05-.07.09-.09.14-.09s.09.05.09.12c0,.33-1.55,1.5-2.66,1.5-.31,0-.52-.14-.52-.54,0-.49.56-1.01.87-1.41.68-.8,1.65-2,1.76-2.07.07-.07.19-.14.31-.14s.26.12.26.24c0,.09-.07.16-.14.24l-1.76,2c-.31.33-.61.68-.61,1.03,0,.13.09.25.33.25ZM28.91,13.68c1.03-.66,1.72-.85,2.16-.85.8,0,.85.66.85.66,0,1.01-1.83,2.12-1.83,2.91,0,.14.09.26.33.26.35,0,.96-.26,1.93-1.13.05-.05.12-.09.16-.09.05,0,.07.05.07.12,0,.33-1.55,1.5-2.66,1.5-.31,0-.52-.14-.52-.54,0-.92,1.79-2.09,1.79-2.82,0-.26-.38-.33-.56-.33-.71.02-1.46.49-2.07.82-.26.19-2.04,2.54-2.21,2.77-.12.14-.21.19-.31.19-.12,0-.19-.09-.19-.21,0-.09.02-.19.12-.28.09-.12.68-.92,1.27-1.67.71-.87,1.36-1.81,1.43-1.9.09-.12.21-.19.35-.19s.21.09.21.24c0,.11-.23.44-.32.54ZM28.98,11c0,.21-.21.47-.33.56-.09.07-.21.12-.33.12-.16,0-.33-.07-.33-.31s.31-.71.66-.71c.16,0,.33.2.33.34ZM28.91,13.68s.16-.09.19-.12l-.19.12ZM36.08,11h-.16c-.35,0-.73-.05-.73-.26,0-.12.14-.26.26-.26.19.07.4.12.61.12.14,0,.28-.02.42-.05,2.37-2.56,4.89-5.01,5.9-5.01.19,0,.42.16.42.4,0,.85-3.34,4.02-5.9,4.89-.78.87-1.65,1.86-2.35,2.68l-.21.23c.68-.35,1.69-.78,2.4-.78.49,0,.82.21.82.78,0,1.34-2.61.71-2.61,2.23,0,.66.4.73.63.73.8,0,1.76-.31,2.73-1.18.05-.07.09-.09.14-.09s.09.05.09.12c0,.33-1.5,1.55-3.15,1.55-.21,0-1.08-.12-1.08-1.01,0-1.83,2.42-1.15,2.42-2.23,0-.33-.21-.42-.56-.42s-.78.12-1.1.26c-.35.16-.78.33-1.18.54-.35.33-2,2.51-2.16,2.73-.12.14-.21.19-.31.19-.12,0-.19-.09-.19-.21,0-.09.02-.19.12-.28.09-.12.66-.92,1.27-1.67.89-1.1,2.28-2.68,3.53-4.07l-.07.07ZM37.37,10.29c2.16-.92,4.7-3.53,4.7-4.09,0-.07-.05-.16-.19-.16-.59,0-2.54,2.04-4.51,4.25ZM41.11,14.97c.35-1.13.73-2.3,2.14-2.3.4,0,.96.21.96.63,0,.33-.31.8-.8.8-.09,0-.16-.02-.19-.12,0-.16.16-.28.26-.33.07-.02.14-.19.14-.33,0-.19-.14-.38-.42-.38-.99,0-1.18,1.22-1.57,2.35.78.47,1.83.94,3.85.94,4.96,0,8.72-4.04,8.72-6.6,0-1.2-.87-2.09-2.96-2.09-.24,0-.47.02-.68.07.28.54.45,1.15.45,1.72,0,1.32-.78,2.51-2.37,2.51-.8,0-1.5-.49-1.5-1.32,0-1.08,1.1-2.59,2.84-3.13-.49-.71-1.29-1.25-2.42-1.25-.85,0-1.67.21-2.42.75-.09.07-.19.09-.28.09-.12,0-.21-.05-.21-.12s.07-.14.21-.26c.82-.61,1.81-.8,2.7-.8,1.29,0,2.26.63,2.82,1.48.28-.07.56-.09.87-.09,2.42,0,3.45,1.1,3.45,2.54,0,2.77-3.85,6.82-9.21,6.82-2,0-3.15-.47-3.97-.94-.35.85-.92,1.57-2.14,1.57-.96,0-1.39-.54-1.39-1.15,0-.75.66-1.57,1.74-1.57.53.02.93.23,1.38.51ZM38.59,15.93c0,.52.26.99.87.99.89,0,1.25-.73,1.53-1.6-.52-.35-.92-.61-1.39-.61-.66,0-1.01.64-1.01,1.22ZM48.63,11.52c1.27,0,1.9-1.08,1.9-2.26,0-.52-.14-1.06-.4-1.55-1.62.45-2.68,1.83-2.68,2.82,0,.63.57.99,1.18.99Z"/></g></svg>