<?xml version="1.0" encoding="UTF-8"?><svg id="Layer_2" xmlns="http://www.w3.org/2000/svg" viewBox="0 0 47.79 20.26"><g id="Layer_1-2"><path d="M20.28,3.54s.05-.12.16-.21c.49-.47.71-.89.71-1.27,0-1.1-1.67-1.83-3.01-1.83-2.28,0-3.31,1.5-3.31,2.87,0,.4.09.8.26,1.15.24-.02.47-.05.68-.05,1.15,0,2.21.26,2.21.85-.05.33-.35.52-.87.52-1.22,0-2.04-.4-2.51-.99-.59.09-1.18.26-1.74.45,1.57.92,3.31,1.79,5.85,1.79,3.69,0,5.85-2.61,5.85-4.49,0-1.06-.68-1.86-2.14-1.86-.16,0-.38-.09-.38-.19,0-.07.14-.12.54-.12,1.67,0,2.59,1.08,2.59,2.4,0,2.02-2.19,4.61-7.17,4.61-2.23,0-4-.99-5.64-1.97-.52.21-.99.45-1.46.7.47.54.71,1.2.71,1.95v.09c.73-.31,1.55-.49,2.42-.49,2.56,0,3.67,1.22,3.67,2.82,0,2.89-3.6,6.93-8.51,6.93-2.14,0-3.43-1.27-3.9-2.91-.38.07-.8.09-1.2.09-2.84,0-4.09-1.76-4.09-3.88C0,7.23,2.98,3.07,7.71,3.07c1.86,0,3.24.82,4.77,1.72.66-.21,1.32-.38,1.93-.47-.19-.33-.28-.71-.28-1.1,0-1.53,1.43-3.22,4-3.22,2.37,0,3.64,1.01,3.64,2.07,0,.59-.38,1.2-1.2,1.62,0-.01-.29-.04-.29-.15ZM10.58,5.58c.47-.24.92-.45,1.39-.61-1.41-.82-2.77-1.57-4.32-1.57-4.32.02-6.89,3.88-6.89,6.93,0,1.97,1.08,3.6,3.45,3.6h.02c.33,0,.66-.02.96-.07-.05-.28-.07-.61-.07-.92,0-3.24,2.28-5.66,4.94-7.12-.47-.4-1.15-.63-2.07-.63-.38,0-.66.05-.8.07-.09,0-.12-.07-.12-.14,0-.31.35-.33.71-.33,1.24,0,2.16.3,2.8.79ZM10.95,7.91c0-.66-.19-1.25-.54-1.72-2.61,1.67-4.47,4.28-4.47,6.63,0,.31.02.59.07.87.75-.19,1.41-.49,2.02-.89.07-1.86,1.22-3.6,2.91-4.56v-.33h.01ZM6.09,14.11c.35,1.43,1.39,2.66,3.45,2.66,4.42,0,7.31-3.64,7.31-6.27,0-1.5-.94-2.66-3.03-2.66-.8,0-1.57.16-2.23.47-.19,1.6-1.32,3.41-3.03,4.63v.07c0,.38.19.61.19.82,0,.07-.02.14-.12.21-.07.05-.12.07-.19.07-.19,0-.31-.21-.35-.45-.02-.12-.05-.26-.05-.4-.59.36-1.25.66-1.95.85ZM10.86,8.71c-1.22.82-2.07,2.12-2.26,3.67,1.25-1.04,2.02-2.4,2.26-3.67ZM15.25,4.5c.35.47.87.78,1.57.78.35,0,.61-.12.61-.26,0-.28-.42-.47-1.69-.54-.16,0-.32,0-.49.02ZM19.13,13.31c1.03-.66,1.72-.85,2.16-.85.8,0,.85.66.85.66,0,1.01-1.83,2.12-1.83,2.91,0,.14.09.26.33.26.35,0,.96-.26,1.93-1.13.05-.05.12-.09.16-.09s.07.05.07.12c0,.33-1.55,1.5-2.66,1.5-.31,0-.52-.14-.52-.54,0-.92,1.79-2.09,1.79-2.82,0-.26-.38-.33-.56-.33-.71.02-1.46.49-2.07.82-.26.19-2.04,2.54-2.21,2.77-.12.14-.21.19-.31.19-.12,0-.19-.09-.19-.21,0-.09.02-.19.12-.28.09-.12.68-.92,1.27-1.67.71-.87,1.36-1.81,1.43-1.9.09-.12.21-.19.35-.19s.21.09.21.24c.01.12-.23.45-.32.54ZM19.13,13.31s.16-.09.19-.12l-.19.12ZM25.33,15.17c.05-.07.09-.09.14-.09s.09.05.09.12c0,.21-.59.78-1.43,1.15-.52.24-.92.31-1.2.31-.63,0-.78-.42-.78-.73,0-.68,1.36-2.54,2.7-4.18-.54,0-1.01,0-1.34-.02-.26,0-.4-.07-.4-.14,0-.09.21-.14.4-.16h1.62c1.03-1.27,1.97-2.33,2.19-2.61.09-.09.24-.16.38-.16.31,0,.28.21.28.21,0,.09-.05.16-.12.21-.4.38-1.25,1.32-2.14,2.37h1.95c.19,0,.28.07.28.14,0,.09-.16.19-.56.19h-1.95c-1.34,1.6-2.68,3.36-2.68,3.9,0,.24.12.52.56.52.16,0,.35-.05.61-.12.46-.21.93-.49,1.4-.91ZM28.81,12.82s.12-.02.16-.02c.07,0,.12.02.12.07,0,.02,0,.05-.02.09-.21.31-.68.78-.68,1.1,0,.28.24.47.54.47.26,0,.54-.19.54-.19.07,0,.12.05.12.12,0,.02,0,.05-.02.07-.12.09-.73.31-1.08.31-.33,0-.78-.14-.78-.49,0-.33.21-.49.21-.7,0-.02,0-.05-.05-.05-.07.02-1.01.61-1.48.96l-1.6,2.04c-.12.14-.21.19-.31.19-.12,0-.19-.09-.19-.21,0-.09.02-.19.12-.28.09-.12.68-.92,1.27-1.67.71-.87,1.36-1.81,1.43-1.9.09-.12.21-.19.35-.19s.21.09.21.24c0,.12-.47.8-.56.89.13-.03.27-.08,1.7-.85ZM29.82,15.8c.12.33.45.54,1.03.54.8,0,1.76-.31,2.73-1.18.05-.07.09-.09.14-.09s.09.05.09.12c0,.33-1.5,1.55-3.15,1.55-1.15,0-1.6-.52-1.6-1.18,0-1.22,1.5-2.94,3.08-2.94.47,0,.82.21.82.73.01,1.21-1.84,2.03-3.14,2.45ZM29.75,15.57c1.29-.49,2.63-1.2,2.63-2.02,0-.35-.24-.52-.54-.52-1.03,0-2.09,1.39-2.09,2.37,0,0,0,.17,0,.17ZM38.57,19.94c4.96,0,8.72-4.04,8.72-6.6,0-1.2-.87-2.09-2.96-2.09-.24,0-.47.02-.68.07.28.54.45,1.15.45,1.72,0,1.32-.78,2.51-2.37,2.51-.8,0-1.5-.49-1.5-1.32,0-1.08,1.1-2.59,2.84-3.13-.49-.71-1.29-1.25-2.42-1.25-.85,0-1.67.21-2.42.75-.09.07-.19.09-.28.09-.12,0-.21-.05-.21-.12s.07-.14.21-.26c.82-.61,1.81-.8,2.7-.8,1.29,0,2.26.63,2.82,1.48.28-.07.56-.09.87-.09,2.42,0,3.45,1.1,3.45,2.54,0,2.77-3.85,6.82-9.21,6.82-3.74,0-5.26-1.95-5.26-3.88s1.46-3.76,3.71-3.76c.47,0,.82.21.82.73,0,1.18-2.04,2.16-3.85,2.51-.02.19-.05.4-.05.61,0,1.75,1.21,3.47,4.62,3.47ZM36.71,13.03c-1.27,0-2.33,1.15-2.66,2.51,1.67-.45,3.2-1.2,3.2-2,0-.34-.23-.51-.54-.51ZM41.72,15.22c1.27,0,1.9-1.08,1.9-2.26,0-.52-.14-1.06-.4-1.55-1.62.45-2.68,1.83-2.68,2.82,0,.63.56.99,1.18.99Z"/></g></svg>