<?xml version="1.0" encoding="UTF-8"?><svg id="Layer_2" xmlns="http://www.w3.org/2000/svg" viewBox="0 0 49.02 20.1"><g id="Layer_1-2"><path d="M23.36,18.48c.19,0,.28.05.28.12s-.09.14-.21.19c-.35.07-.66.12-.94.12-1.6,0-2.28-1.15-2.28-2.54,0-2.89,7.99-11.73,10.72-14.1.05-.05,1.08-.92,1.06-.92-4.32,2.14-15.68,14.05-17.09,15.56-.05.07-.19.21-.31.21-.12-.07-.14-.12-.14-.19s.05-.16.12-.24c.09-.12.82-1.18,1.36-1.81,1.86-2.19,6.39-11.14,8.51-13.47-5.92,4.82-12.13,16.1-20.23,16.12-2.82,0-4.21-1.79-4.21-3.57s1.41-3.6,4.07-3.6c1.06,0,1.69.35,2.04.82.96-.68,2.33-1.25,3.9-1.25.47,0,.85.05.85.31-.02.05-.05.07-.09.07h-.05c-.26-.05-.52-.09-.78-.09-1.53,0-2.8.56-3.69,1.22.09.21.14.42.14.63,0,.8-.59,1.57-1.5,1.57-.28,0-.42-.14-.42-.38,0-.42.47-1.15,1.32-1.83-.28-.42-.87-.75-1.93-.75-2.16,0-3.24,1.48-3.24,3.03,0,1.67,1.25,3.38,3.78,3.38,5.15,0,9.92-5.45,11.87-7.64,1.83-2.07,7.99-9.45,9.75-9.45.09,0,.21.07.21.16s-.09.24-.19.28c-2.07,1.27-5.29,8.55-8.44,12.95,1.32-.94,9.89-10.5,15.49-13.11.16-.07.33-.14.45-.14.14,0,.26.07.26.21,0,.07-.05.12-.16.16-2.66,2.44-12.62,11.84-12.62,16,0,1.03.45,2,1.69,2,.2.04.42.02.65-.03ZM3.03,5.06c0,.07.02.14.16.21.14,0,.28-.31.63-.71,2.61-3.08,5.8-3.38,6.82-3.38,3.22,0,4.23,1.93,4.23,3.78,0,.16,0,.31-.02.47-1.2,1.06-2.21,2.07-2.21,2.8,0,.33.12.49.49.49,1.01,0,1.9-1.5,2.09-3.2l.94-.82c.07.85.47,1.5,1.34,1.5,1.01,0,1.36-.49,1.5-.56.12-.05.16-.14.16-.21s-.02-.12-.09-.12-.14.05-.26.14c-.38.33-.61.4-1.2.4-.78,0-1.06-.61-1.06-1.39v-.12c1.39-1.22,2.66-2.42,2.66-3.22,0-.21-.12-.38-.35-.38-1.55,0-2.61,1.95-2.7,3.53l-.89.78v-.21c0-2.02-1.06-4.09-4.09-4.09-5.28.01-8.15,4.31-8.15,4.31ZM5.9,11.73c-.71.59-1.08,1.22-1.08,1.5,0,.12.05.16.16.16.52,0,.99-.63.99-1.29,0-.11-.02-.25-.07-.37ZM14.78,5.95c-.24,1.27-.92,2.3-1.5,2.3-.07,0-.12-.05-.12-.19,0-.49.68-1.26,1.62-2.11ZM16.62,3.91c.19-1.22.94-2.54,1.76-2.54.07,0,.14.05.14.14,0,.59-.85,1.46-1.9,2.4ZM26.86,15.8s-.05,0-.07.02c0,0-1.18.78-2.14.78-.78,0-1.13-.4-1.13-.94,0-1.2,1.69-3.13,3.9-3.13.96,0,1.36.59,1.36.59.02,0,.05-.02.38-.35.05-.07.21-.26.38-.26.12,0,.21.12.21.21,0,.12-.09.21-.09.21-.24.31-1.72,2.09-1.86,2.3-.07.09-.19.42-.19.63,0,.14.09.26.33.26.35,0,.96-.26,1.93-1.13.05-.07.09-.09.14-.09s.09.05.09.12c0,.33-1.55,1.5-2.66,1.5-.31,0-.52-.14-.52-.54,0-.09-.01-.18-.06-.18ZM28.37,13.59c0-.38-.59-.68-1.15-.68-1.55,0-2.89,1.69-2.89,2.63,0,.38.19.63.68.63,1.34,0,3.15-1.8,3.36-2.58ZM30.32,16.13c.35,0,.96-.26,1.93-1.13.05-.07.09-.09.14-.09s.09.05.09.12c0,.33-1.55,1.5-2.66,1.5-.31,0-.52-.14-.52-.54,0-.49.56-1.01.87-1.41.68-.8,1.65-2,1.76-2.07.07-.07.19-.14.31-.14s.26.12.26.24c0,.09-.07.16-.14.24l-1.76,2c-.31.33-.61.68-.61,1.03,0,.13.09.25.33.25ZM33.87,13.66c-.26.19-2.04,2.54-2.21,2.77-.12.14-.21.19-.31.19-.12,0-.19-.09-.19-.21,0-.09.02-.19.12-.28.09-.12.68-.92,1.27-1.67.71-.87,1.36-1.81,1.43-1.9.09-.12.21-.19.35-.19s.21.09.21.24c0,.12-.24.45-.33.54,1.03-.66,1.72-.85,2.16-.85.8,0,.89.54.89.66,0,1.06-2.14,2.26-2.14,3.74,0,2.09,2.89,3.08,4.68,3.08,4.96,0,8.72-4.04,8.72-6.6,0-1.2-.87-2.09-2.96-2.09-.24,0-.47.02-.68.07.28.54.45,1.15.45,1.72,0,1.32-.78,2.51-2.37,2.51-.8,0-1.5-.49-1.5-1.32,0-1.08,1.1-2.59,2.84-3.13-.49-.71-1.29-1.25-2.42-1.25-.85,0-1.67.21-2.42.75-.09.07-.19.09-.28.09-.12,0-.21-.05-.21-.12s.07-.14.21-.26c.82-.61,1.81-.8,2.7-.8,1.29,0,2.26.63,2.82,1.48.28-.07.56-.09.87-.09,2.42,0,3.45,1.1,3.45,2.54,0,2.77-3.85,6.82-9.21,6.82-2.02,0-5.15-.99-5.15-3.57,0-1.67,1.88-2.66,1.88-3.36,0-.33-.56-.33-.56-.33-.75.02-1.5.49-2.11.82ZM34.29,10.46c0,.21-.21.47-.33.56-.09.07-.21.12-.33.12-.16,0-.33-.07-.33-.31s.31-.71.66-.71c.17.02.33.2.33.34ZM42.96,15.05c1.27,0,1.9-1.08,1.9-2.26,0-.52-.14-1.06-.4-1.55-1.62.45-2.68,1.83-2.68,2.82.01.63.57.99,1.18.99Z"/></g></svg>